<svg width="30" height="30" viewBox="0 0 30 30" fill="none" xmlns="http://www.w3.org/2000/svg">
<path d="M16.8588 14.3815C16.9481 15.0847 16.6663 15.6483 16.0134 16.0724C15.3605 16.4965 14.7383 16.53 14.1468 16.1728C13.7115 15.9831 13.4129 15.6594 13.2511 15.2018C13.0893 14.7443 13.0865 14.2867 13.2427 13.8291C13.399 13.3715 13.6892 13.0478 14.1133 12.8581C14.5151 12.6572 14.9196 12.5902 15.327 12.6572C15.7344 12.7242 16.0915 12.9223 16.3984 13.2515C16.7054 13.5808 16.8588 13.9574 16.8588 14.3815ZM18.7171 14.03C18.5608 12.8358 17.9302 11.9206 16.8253 11.2844C15.7204 10.6483 14.6211 10.5757 13.5273 11.0668C12.8242 11.3793 12.2634 11.8732 11.8449 12.5484C11.4263 13.2236 11.2338 13.9463 11.2673 14.7164C11.3119 15.732 11.7444 16.5969 12.5647 17.3112C13.385 18.0255 14.3086 18.338 15.3354 18.2487C16.351 18.1594 17.1992 17.6907 17.88 16.8425C18.5608 15.9943 18.8398 15.0568 18.7171 14.03ZM22.7182 4.95631C22.495 4.65497 22.1825 4.40665 21.7807 4.21133C21.3789 4.01602 21.0552 3.89325 20.8097 3.84303C20.5642 3.79281 20.168 3.72305 19.6211 3.63377C16.3733 3.10921 13.2148 3.12037 10.1456 3.66725C9.66574 3.74537 9.29743 3.81234 9.04074 3.86814C8.78404 3.92395 8.47712 4.04671 8.11998 4.23645C7.76283 4.42618 7.48382 4.66613 7.28292 4.95631C7.61775 5.26881 8.04185 5.52272 8.55525 5.71803C9.06864 5.91334 9.47879 6.03611 9.78571 6.08633C10.0926 6.13656 10.5809 6.20073 11.2506 6.27886C13.7952 6.60252 16.2952 6.6081 18.7506 6.2956C19.4537 6.20631 19.9531 6.13935 20.2489 6.0947C20.5446 6.05006 20.9492 5.93008 21.4626 5.73477C21.976 5.53946 22.3945 5.27997 22.7182 4.95631ZM23.6724 22.2833C23.5831 22.5735 23.4967 23.0004 23.4129 23.564C23.3292 24.1276 23.2511 24.5964 23.1786 24.9703C23.106 25.3441 22.947 25.7348 22.7015 26.1421C22.4559 26.5495 22.1323 26.8648 21.7305 27.088C20.7706 27.6237 19.7132 28.0227 18.558 28.285C17.4029 28.5473 16.2757 28.67 15.1763 28.6533C14.077 28.6366 12.9526 28.5333 11.803 28.3436C11.2896 28.2543 10.8348 28.1539 10.4386 28.0423C10.0424 27.9306 9.61551 27.78 9.15792 27.5902C8.70033 27.4005 8.29297 27.1578 7.93583 26.862C7.57868 26.5662 7.2885 26.2231 7.06529 25.8324C6.78627 24.761 6.46819 23.1315 6.11105 20.944L6.2115 20.6762L6.51283 20.5255C9.00167 22.1773 11.8281 23.0032 14.9922 23.0032C18.1562 23.0032 20.9883 22.1773 23.4883 20.5255C23.7227 20.5925 23.8566 20.7208 23.8901 20.9106C23.9235 21.1003 23.8956 21.3514 23.8064 21.6639C23.7171 21.9764 23.6724 22.1829 23.6724 22.2833ZM26.7026 6.19515C26.4124 8.05899 25.793 11.7141 24.8443 17.1606C24.7885 17.4954 24.6378 17.8079 24.3923 18.0981C24.1468 18.3882 23.904 18.6114 23.6641 18.7677C23.4241 18.9239 23.12 19.0969 22.7517 19.2867C19.9392 20.6929 16.5352 21.184 12.5396 20.7599C9.77176 20.4585 7.5731 19.6829 5.94364 18.4329C5.77623 18.2989 5.63393 18.1511 5.51674 17.9892C5.39955 17.8274 5.30469 17.6321 5.23214 17.4033C5.1596 17.1745 5.10937 16.9848 5.08147 16.8341C5.05357 16.6834 5.02009 16.463 4.98103 16.1728C4.94196 15.8827 4.91127 15.6873 4.88895 15.5869C4.7885 15.0289 4.64062 14.1918 4.44531 13.0757C4.25 11.9597 4.09375 11.0584 3.97656 10.372C3.85937 9.68566 3.72824 8.86256 3.58315 7.90274C3.43806 6.94292 3.31529 6.06122 3.21484 5.25765C3.24833 4.96747 3.34598 4.69682 3.50781 4.44571C3.66964 4.19459 3.84542 3.98533 4.03516 3.81792C4.22489 3.65051 4.476 3.4831 4.7885 3.31569C5.101 3.14828 5.3577 3.02272 5.55859 2.93901C5.75949 2.85531 6.02734 2.75207 6.36217 2.6293C7.75725 2.11591 9.50391 1.75877 11.6021 1.55787C15.832 1.14493 19.6044 1.42395 22.9191 2.39493C24.649 2.90832 25.8488 3.58912 26.5184 4.43734C26.697 4.66055 26.7891 4.94515 26.7946 5.29113C26.8002 5.63712 26.7695 5.93845 26.7026 6.19515Z" fill="#303030"/>
</svg>
