<svg width="30" height="30" viewBox="0 0 30 30" fill="none" xmlns="http://www.w3.org/2000/svg">
<g clip-path="url(#clip0_59_324)">
<path d="M3.61484 19.5707L13.7098 26.3007V20.2907L8.11734 16.5582L3.61484 19.5707ZM2.57609 17.1607L5.80734 15.0007L2.57609 12.8407V17.1607ZM16.2873 26.3007L26.3823 19.5707L21.8823 16.5582L16.2873 20.2907V26.3007ZM14.9986 18.0482L19.5523 15.0007L14.9986 11.9532L10.4448 15.0007L14.9986 18.0482ZM8.11734 13.4482L13.7098 9.7107V3.7007L3.61484 10.4307L8.11734 13.4482ZM24.1898 15.0007L27.4211 17.1607V12.8407L24.1898 15.0007ZM21.8798 13.4432L26.3798 10.4307L16.2873 3.7007V9.7107L21.8798 13.4432ZM29.9986 10.4307V19.5707V19.6082C29.9986 20.0407 29.7736 20.422 29.4336 20.6395L29.4286 20.642L15.7173 29.7832C15.5148 29.9195 15.2661 30.0007 14.9973 30.0007C14.7286 30.0007 14.4798 29.9195 14.2723 29.7807L14.2773 29.7832L0.566094 20.6432C0.221094 20.4232 -0.00390625 20.042 -0.00390625 19.6095C-0.00390625 19.5957 -0.00390625 19.5832 -0.00265625 19.5695V19.572V10.432C-0.00265625 10.4207 -0.00265625 10.407 -0.00265625 10.3932C-0.00265625 9.9607 0.222344 9.57945 0.562344 9.36195L0.567344 9.35945L14.2786 0.219453C14.4811 0.0832031 14.7298 0.00195312 14.9986 0.00195312C15.2673 0.00195312 15.5161 0.0832031 15.7236 0.221953L15.7186 0.219453L29.4298 9.35945C29.7748 9.57945 29.9998 9.9607 29.9998 10.3932C29.9998 10.407 29.9998 10.4195 29.9986 10.4332V10.4307Z" fill="white"/>
</g>
<defs>
<clipPath id="clip0_59_324">
<rect width="30" height="30" fill="white"/>
</clipPath>
</defs>
</svg>
