<svg width="30" height="30" viewBox="0 0 30 30" fill="none" xmlns="http://www.w3.org/2000/svg">
<path d="M9.16463 15L0 21.9004V8.09961L9.16463 15ZM20.8354 15L30 21.9004V8.09961L20.8354 15V15ZM19.4963 16.0112L15.3988 19.0954C15.278 19.1842 15.139 19.2308 15 19.2308C14.861 19.2308 14.722 19.1842 14.6012 19.0954L10.5037 16.0112L0.607317 23.4615L0.0329269 23.8931C0.212195 25.0862 1.1122 26 2.19512 26H27.8049C28.8878 26 29.7878 25.0904 29.9671 23.8931L29.389 23.4615L19.4963 16.0112V16.0112ZM15 17.3735L29.389 6.53846L29.9671 6.10692C29.7878 4.90962 28.8878 4 27.8049 4H2.19512C1.1122 4 0.212195 4.91385 0.0329269 6.10692L0.607317 6.53846L15 17.3735Z" fill="white"/>
</svg>
