<svg width="30" height="30" viewBox="0 0 30 30" fill="none" xmlns="http://www.w3.org/2000/svg">
<path d="M12.5894 25.6284C12.5893 25.4451 12.549 25.264 12.4712 25.098C12.3934 24.9321 12.28 24.7852 12.1391 24.6679C11.9983 24.5506 11.8333 24.4657 11.6559 24.4193C11.4786 24.3729 11.2932 24.366 11.1129 24.3992C9.47658 24.6995 7.41054 24.7446 6.86122 23.2017C6.38223 22.0067 5.58881 20.9636 4.56508 20.1829C4.49204 20.1432 4.42242 20.0975 4.35696 20.0462C4.26736 19.8099 4.10822 19.6062 3.90053 19.4622C3.69285 19.3181 3.44637 19.2404 3.19362 19.2393H3.18752C2.85702 19.2392 2.53993 19.37 2.30566 19.6031C2.07139 19.8363 1.93902 20.1527 1.93752 20.4832C1.93263 21.5025 2.95127 22.1556 3.36452 22.3765C3.85182 22.8661 4.24346 23.4424 4.5193 24.0757C4.97463 25.355 6.29787 27.296 10.1016 27.0457C10.1028 27.0897 10.104 27.1312 10.1046 27.169L10.1101 27.5035C10.1101 27.835 10.2418 28.153 10.4762 28.3874C10.7107 28.6218 11.0286 28.7535 11.3601 28.7535C11.6916 28.7535 12.0096 28.6218 12.244 28.3874C12.4784 28.153 12.6101 27.835 12.6101 27.5035L12.604 27.1056C12.5979 26.8687 12.5894 26.5256 12.5894 25.6284ZM25.9231 6.72093C25.9628 6.56468 26.0019 6.39134 26.036 6.19603C26.2382 4.80301 26.062 3.38127 25.5258 2.07978C25.4581 1.91011 25.3542 1.75729 25.2212 1.63203C25.0883 1.50678 24.9295 1.41212 24.7561 1.35469C24.3111 1.20454 22.6681 0.909129 19.526 2.91719C16.9142 2.30256 14.1954 2.30256 11.5835 2.91719C8.45424 0.938541 6.81972 1.20704 6.37904 1.34864C6.20137 1.40374 6.03828 1.4979 5.90173 1.62421C5.76517 1.75053 5.65861 1.9058 5.58985 2.07864C5.04273 3.40512 4.86841 4.85586 5.08571 6.27419C5.11623 6.4341 5.14918 6.58182 5.18337 6.7173C4.14783 8.09661 3.59626 9.77901 3.61416 11.5037C3.61078 11.8885 3.62851 12.2732 3.66726 12.656C4.08476 18.4092 7.83475 20.1365 10.4476 20.7298C10.3933 20.886 10.3439 21.0532 10.2999 21.2303C10.2216 21.5519 10.274 21.8914 10.4457 22.1745C10.6174 22.4575 10.8942 22.6609 11.2157 22.7401C11.5371 22.8193 11.8768 22.7678 12.1602 22.5968C12.4437 22.4259 12.6479 22.1496 12.7279 21.8284C12.8075 21.4119 13.0113 21.0293 13.3126 20.731C13.4948 20.5715 13.6268 20.3624 13.6923 20.1293C13.7579 19.8962 13.7543 19.6491 13.6821 19.418C13.6098 19.1869 13.4719 18.9818 13.2851 18.8276C13.0984 18.6734 12.8709 18.5768 12.6303 18.5496C8.31264 18.0564 6.43824 16.2974 6.15627 12.4265C6.12503 12.12 6.11097 11.8119 6.11416 11.5037C6.0941 10.2745 6.50019 9.07629 7.26344 8.11258C7.34013 8.01211 7.42182 7.91555 7.50819 7.82327C7.66123 7.65202 7.76413 7.44192 7.80558 7.21602C7.84704 6.99013 7.82545 6.75718 7.74319 6.54275C7.65886 6.31717 7.59393 6.08479 7.5491 5.84817C7.44727 5.17531 7.48067 4.4889 7.64736 3.82912C8.73377 4.13596 9.75625 4.63542 10.6661 5.30372C10.8166 5.40393 10.9868 5.47063 11.1653 5.49927C11.3438 5.52792 11.5264 5.51785 11.7007 5.46974C14.227 4.78412 16.8906 4.78455 19.4167 5.47099C19.5919 5.51904 19.7755 5.52854 19.9547 5.49883C20.1339 5.46911 20.3046 5.4009 20.4549 5.29888C21.3605 4.6278 22.3787 4.12388 23.4615 3.81084C23.6275 4.45478 23.6646 5.12516 23.5708 5.78349C23.5255 6.04291 23.4548 6.29724 23.3596 6.54278C23.2773 6.75721 23.2557 6.99016 23.2972 7.21605C23.3386 7.44194 23.4415 7.65204 23.5946 7.82329C23.691 7.93193 23.7875 8.04912 23.8741 8.15898C24.632 9.10638 25.0312 10.2908 25.0015 11.5037C25.0037 11.8282 24.9881 12.1526 24.9545 12.4754C24.6792 16.2949 22.7975 18.0552 18.4597 18.5496C18.2191 18.577 17.9915 18.6737 17.8048 18.8281C17.6181 18.9824 17.4803 19.1876 17.408 19.4188C17.3358 19.6501 17.3323 19.8973 17.398 20.1304C17.4637 20.3636 17.5957 20.5727 17.778 20.7322C18.0888 21.0385 18.2931 21.4364 18.3609 21.8674C18.4453 22.2021 18.4841 22.5466 18.4762 22.8916V25.8091C18.464 26.6184 18.464 27.2251 18.464 27.5034C18.464 27.835 18.5957 28.1529 18.8301 28.3873C19.0645 28.6217 19.3825 28.7534 19.714 28.7534C20.0455 28.7534 20.3634 28.6217 20.5979 28.3873C20.8323 28.1529 20.964 27.835 20.964 27.5034C20.964 27.2324 20.964 26.638 20.9762 25.8286V22.8916C20.9863 22.3389 20.9212 21.7874 20.7827 21.2522C20.7431 21.0765 20.6946 20.903 20.6374 20.7322C22.539 20.4163 24.2668 19.4359 25.5132 17.9655C26.7597 16.4951 27.4439 14.63 27.4441 12.7024C27.4853 12.3042 27.5044 11.904 27.5015 11.5037C27.5292 9.77714 26.973 8.09184 25.9231 6.72095L25.9231 6.72093Z" fill="white"/>
</svg>
