<svg width="30" height="30" viewBox="0 0 30 30" fill="none" xmlns="http://www.w3.org/2000/svg">
<g clip-path="url(#clip0_218_40)">
<path d="M0 3.99613C0 3.03086 0.337847 2.23453 1.01351 1.60714C1.68918 0.979713 2.56758 0.666016 3.64865 0.666016C4.71043 0.666016 5.56949 0.974877 6.22587 1.59266C6.90153 2.22972 7.23938 3.05982 7.23938 4.083C7.23938 5.00964 6.91121 5.78183 6.25483 6.39961C5.57916 7.03667 4.69112 7.3552 3.59073 7.3552H3.56178C2.49999 7.3552 1.64094 7.03667 0.984556 6.39961C0.328176 5.76254 0 4.96137 0 3.99613ZM0.376448 29.334V9.99034H6.80502V29.334H0.376448ZM10.3668 29.334H16.7954V18.5328C16.7954 17.8571 16.8726 17.3359 17.027 16.9691C17.2973 16.3127 17.7075 15.7577 18.2577 15.304C18.8079 14.8504 19.4981 14.6235 20.3282 14.6235C22.4904 14.6235 23.5714 16.0811 23.5714 18.9961V29.334H30V18.2432C30 15.3861 29.3243 13.2191 27.973 11.7423C26.6216 10.2654 24.8359 9.52702 22.6158 9.52702C20.1255 9.52702 18.1853 10.5984 16.7954 12.7413V12.7992H16.7664L16.7954 12.7413V9.99034H10.3668C10.4054 10.6081 10.4247 12.5289 10.4247 15.7529C10.4247 18.9768 10.4054 23.5038 10.3668 29.334Z" fill="#303030"/>
</g>
<defs>
<clipPath id="clip0_218_40">
<rect width="30" height="28.668" fill="white" transform="translate(0 0.666016)"/>
</clipPath>
</defs>
</svg>
