<svg width="30" height="30" viewBox="0 0 30 30" fill="none" xmlns="http://www.w3.org/2000/svg">
<path d="M9.05375 0H2.1875V0.1675H9.05375V0Z" fill="white"/>
<path d="M27.8116 0H20.9453V0.1675H27.8116V0Z" fill="white"/>
<path d="M23.2013 6.2793C20.0275 6.2793 17.5638 8.3393 16.5638 11.7318C15.0388 9.4418 13.8787 6.6918 13.205 4.37305H9.785V13.2543C9.7825 15.0105 8.35875 16.433 6.60125 16.4355C4.845 16.433 3.4225 15.008 3.42 13.2543V4.3743H0V13.2555C0 16.8943 2.9625 19.878 6.60125 19.878C10.2425 19.878 13.205 16.8943 13.205 13.2555V11.7693C13.8663 13.1518 14.6825 14.553 15.6725 15.7918L13.5812 25.6243H17.0775L18.5938 18.493C19.9225 19.3405 21.45 19.878 23.2013 19.878C26.9513 19.878 30 16.8155 30 13.0718C30 9.32555 26.9513 6.2793 23.2013 6.2793ZM23.2013 16.4455C21.8238 16.4455 20.5325 15.8618 19.3588 14.913L19.6437 13.5693L19.6537 13.5168C19.9125 12.0893 20.715 9.69555 23.2025 9.69555C25.0675 9.69555 26.5812 11.2093 26.5812 13.0705C26.58 14.9305 25.0663 16.4455 23.2013 16.4455Z" fill="white"/>
</svg>
