<svg width="68" height="50" viewBox="0 0 68 50" fill="none" xmlns="http://www.w3.org/2000/svg">
<path d="M25.4754 0V4.15058C18.7869 8.14028 14.2295 11.8404 11.8033 15.251C10.0328 17.7606 9.14754 20.7207 9.14754 24.1313C9.14754 26.1905 9.54098 27.7027 10.3279 28.668C11.0492 29.6332 11.9016 30.1158 12.8852 30.1158C13.541 30.1158 14.459 29.8906 15.6393 29.4402C17.4098 28.861 18.8525 28.5714 19.9672 28.5714C22.5902 28.5714 24.918 29.5367 26.9508 31.4672C28.9836 33.3977 30 35.8108 30 38.7066C30 41.9884 28.9836 44.5302 26.9508 46.332C24.1311 48.7773 20.8525 50 17.1148 50C12.6557 50 8.68852 48.166 5.21311 44.4981C1.7377 40.8301 0 36.2934 0 30.888C0 23.2947 2.88525 16.3771 8.65574 10.1351C12.5246 6.01673 18.1311 2.63835 25.4754 0Z" fill="#676CDB"/>
<path d="M63.4754 0V4.15058C56.7869 8.14028 52.2295 11.8404 49.8033 15.251C48.0328 17.7606 47.1475 20.7207 47.1475 24.1313C47.1475 26.1905 47.541 27.7027 48.3279 28.668C49.0492 29.6332 49.9016 30.1158 50.8852 30.1158C51.541 30.1158 52.459 29.8906 53.6393 29.4402C55.4098 28.861 56.8525 28.5714 57.9672 28.5714C60.5902 28.5714 62.918 29.5367 64.9508 31.4672C66.9836 33.3977 68 35.8108 68 38.7066C68 41.9884 66.9836 44.5302 64.9508 46.332C62.1311 48.7773 58.8525 50 55.1148 50C50.6557 50 46.6885 48.166 43.2131 44.4981C39.7377 40.8301 38 36.2934 38 30.888C38 23.2947 40.8852 16.3771 46.6557 10.1351C50.5246 6.01673 56.1311 2.63835 63.4754 0Z" fill="#676CDB"/>
</svg>
