<svg width="24" height="24" viewBox="0 0 24 24" fill="none" xmlns="http://www.w3.org/2000/svg">
<path d="M0 18.6667C0 19.403 0.596954 20 1.33333 20H22.6667C23.403 20 24 19.403 24 18.6667V18.6667C24 17.9303 23.403 17.3333 22.6667 17.3333H1.33333C0.596954 17.3333 0 17.9303 0 18.6667V18.6667ZM0 12C0 12.7364 0.596954 13.3333 1.33333 13.3333H22.6667C23.403 13.3333 24 12.7364 24 12V12C24 11.2636 23.403 10.6667 22.6667 10.6667H1.33333C0.596954 10.6667 0 11.2636 0 12V12ZM1.33333 4C0.596954 4 0 4.59695 0 5.33333V5.33333C0 6.06971 0.596954 6.66667 1.33333 6.66667H22.6667C23.403 6.66667 24 6.06971 24 5.33333V5.33333C24 4.59695 23.403 4 22.6667 4H1.33333Z" fill="#676CDB"/>
</svg>
